# xmcd
#
# Track frame offsets: 
#        150
#        19032
#        41005
#        60640
#        67272
#        81429
#        96842
#        106810
#        116730
#        141862
#        153877
#        175667
#        197217
#        205305
#        224487
#        242937
#        255800
#        265932
#
# Disc length: 3890 seconds
#
# Revision: 2
# Processed by: cddbd v1.5.1PL2 Copyright (c) Steve Scherf et al.
# Submitted via: ExactAudioCopy v0.95b3
#
DISCID=070f3012
DTITLE=Howard Armstrong - Louie Bluie
DYEAR=1995
DGENRE=
TTITLE0=Lady Be Good
TTITLE1=St. Louis Blues
TTITLE2=You're Nobody till Somebody Loves You
TTITLE3=John Henry intro (spoken)
TTITLE4=John Henry
TTITLE5=Sittin' on Top of the World
TTITLE6=Howard's Rag
TTITLE7=Louie Bluie (spoken)
TTITLE8=Louie Bluie Blues
TTITLE9=This Little Song of Mine
TTITLE10=Dinah
TTITLE11=Wading Through Deep Water
TTITLE12=Bogan's Secret (spoken)
TTITLE13=Chinatown
TTITLE14=Betty and Dupree
TTITLE15=Instruments (spoken)
TTITLE16=Summertime
TTITLE17=When He Calls Me I Will Answer
EXTD=Howard "Louie Bluie" Armstrong (1909-03-04/2003-07-30): violin, m
EXTD=andolin, guitar, vocals\nRalphe Armstrong: bass\nRay Kamalay: gui
EXTD=tar, background vocals\nJohn Rockwood: harmonica ("Sittin' on Top
EXTD=of the World"]\nRecorded at Scharren Studios, Toledo US-OH, by D
EXTD=oug James.\nMixed by Steve Scharren and Dan Schroeder.\nProduced 
EXTD=by Bob Seeman and John Rockwood.\nBlue Suit CD BS-106D (1995), UP
EXTD=C 797621010623.\n© (p) 1995 Blue Suit Records\nPO Box 352707, Tol
EXTD=edo OH 43635
EXTT0=
EXTT1=
EXTT2=
EXTT3=
EXTT4=
EXTT5=
EXTT6=
EXTT7=
EXTT8=
EXTT9=
EXTT10=
EXTT11=
EXTT12=
EXTT13=
EXTT14=
EXTT15=
EXTT16=
EXTT17=
PLAYORDER=
